# xmcd CD database file
#
# Track frame offsets:
#	150
#	13854
#	30651
#	50818
#	64074
#	76237
#	93958
#	112245
#	125841
#	137575
#	159945
#	173757
#	190136
#	209265
#	227844
#	245214
#	270705
#	290979
#	313960
#
# Disc length: 4321 seconds
#
# Revision: 0
# Processed by: cddbd v1.4PL0 Copyright (c) Steve Scherf et al.
# Submitted via: CDex 1.50beta10
#
DISCID=2210df13
DTITLE=Orquesta todo estrellas - Lo mejor de la musica cubana
DYEAR=1900
DGENRE=Salsa
TTITLE0=Mambo No. 5 (Perez prado y su orquesta)
TTITLE1=Hasta siempre (Carlos Puebla)
TTITLE2=Chan Chan (Compay segundo)
TTITLE3=Guajira Guantanamera (Joseito Fernandez)
TTITLE4=Son de la loma (Miguel Matamoros)
TTITLE5=Echale Salsita Ignacio Piñeiro)
TTITLE6=Canto a camilo (Carlos puebla)
TTITLE7=El bodeguero (Orq. Aragon)
TTITLE8=mambo No. 1 (Perez prado y su orq.)
TTITLE9=Rico Vacilon (trova Santiaguera)
TTITLE10=Guajira con tumbao (peruchin Jr.)
TTITLE11=Lagrimas negras (Celina Gonzales)
TTITLE12=Cachita (Rafael Hernandez)
TTITLE13=El cuarto de tula (Eliades Ochoa)
TTITLE14=guajiro Natural (polo Montañez)
TTITLE15=idilio (laito)
TTITLE16=El cafetal (Laito Jr.)
TTITLE17=La vida es un carnaval (isaac Delgado)
TTITLE18=Cuba que linda es cuba (Ramon Veloz)
EXTD=
EXTT0=
EXTT1=
EXTT2=
EXTT3=
EXTT4=
EXTT5=
EXTT6=
EXTT7=
EXTT8=
EXTT9=
EXTT10=
EXTT11=
EXTT12=
EXTT13=
EXTT14=
EXTT15=
EXTT16=
EXTT17=
EXTT18=
PLAYORDER=
